# xmcd
#
# Track frame offsets: 
#        150
#        17349
#        34527
#        45136
#        58900
#        70534
#        82794
#        98760
#        106610
#        125843
#        134600
#        150963
#        163663
#
# Disc length: 2341 seconds
#
# Revision: 3
# Processed by: cddbd v1.5.2PL0 Copyright (c) Steve Scherf et al.
# Submitted via: ExactAudioCopyFreeDBPlugin 1.0
#
DISCID=8e09230d
DTITLE=Loretta Lynn - 2004 - Van Lear Rose
DYEAR=2004
DGENRE=Country
TTITLE0=Van Lear Rose
TTITLE1=Portland Oregan (Duet with Jack White)
TTITLE2=Trouble On The Line
TTITLE3=Family Tree
TTITLE4=Have Mercy
TTITLE5=High On A Mountain Top
TTITLE6=Little Red Shoes
TTITLE7=God Makes No Mistakes
TTITLE8=Women's Prison
TTITLE9=This Old House
TTITLE10=Mrs. Leroy Brown
TTITLE11=Miss Being Mrs.
TTITLE12=Story Of My Life
EXTD=Produced and Arranged by Jack White
EXTT0=
EXTT1=
EXTT2=
EXTT3=
EXTT4=
EXTT5=
EXTT6=
EXTT7=
EXTT8=
EXTT9=
EXTT10=
EXTT11=
EXTT12=
PLAYORDER=
